<?xml version="1.0" encoding="utf-8"?>
<!-- Generator: Adobe Illustrator 16.0.4, SVG Export Plug-In . SVG Version: 6.00 Build 0)  -->
<!DOCTYPE svg PUBLIC "-//W3C//DTD SVG 1.1//EN" "http://www.w3.org/Graphics/SVG/1.1/DTD/svg11.dtd">
<svg version="1.1" id="레이어_1" xmlns="http://www.w3.org/2000/svg" xmlns:xlink="http://www.w3.org/1999/xlink" x="0px"
	 y="0px" width="120px" height="120px" viewBox="4.59 4.589 120 120" enable-background="new 4.59 4.589 120 120"
	 xml:space="preserve">
<path d="M124.59,107.583c0,9.392-7.616,17.007-17.008,17.007H21.598c-9.395,0-17.008-7.615-17.008-17.007V21.597
	c0-9.393,7.613-17.008,17.008-17.008h85.984c9.392,0,17.008,7.615,17.008,17.008V107.583z M64.593,97.943
	c1.265,0,2.44-0.679,3.078-1.776l34.916-49.2c0.979-1.699,0.397-3.875-1.304-4.855c-1.7-0.982-3.873-0.401-4.856,1.302
	L64.593,87.271L32.751,43.415c-0.984-1.703-3.156-2.284-4.855-1.302c-1.699,0.98-2.283,3.156-1.301,4.855l34.916,49.2
	C62.143,97.265,63.317,97.943,64.593,97.943 M64.593,60.053c7.942,0,14.406-6.462,14.406-14.409c0-7.947-6.464-14.409-14.406-14.409
	c-7.952,0-14.413,6.462-14.413,14.409C50.18,53.591,56.641,60.053,64.593,60.053 M64.593,38.707c3.822,0,6.935,3.113,6.935,6.938
	c0,3.824-3.111,6.937-6.935,6.937c-3.827,0-6.94-3.113-6.94-6.937C57.652,41.819,60.766,38.707,64.593,38.707"/>
</svg>
