<?xml version="1.0" encoding="utf-8"?>
<!-- Generator: Adobe Illustrator 16.0.0, SVG Export Plug-In . SVG Version: 6.00 Build 0)  -->
<!DOCTYPE svg PUBLIC "-//W3C//DTD SVG 1.1//EN" "http://www.w3.org/Graphics/SVG/1.1/DTD/svg11.dtd">
<svg version="1.1" id="Layer_1" xmlns="http://www.w3.org/2000/svg" xmlns:xlink="http://www.w3.org/1999/xlink" x="0px" y="0px"
	 width="358.124px" height="61.583px" viewBox="0 0 358.124 61.583" enable-background="new 0 0 358.124 61.583"
	 xml:space="preserve">
<g>
	<path fill="#F37820" d="M241.582,60.919c-1.034,0-2.064-0.44-2.876-1.548l-19.627-26.34l-8.265,9.517v14.609
		c0,2.436-1.841,3.69-3.687,3.69c-1.845,0-3.691-1.254-3.691-3.69V4.032c0-2.436,1.846-3.69,3.691-3.69
		c1.846,0,3.687,1.254,3.687,3.69v27.3l25.753-29.736c0.81-0.959,1.768-1.327,2.729-1.327c1.991,0,3.836,1.77,3.836,3.762
		c0,0.811-0.295,1.624-0.96,2.436l-18.075,20.805l20.511,27.672c0.592,0.737,0.812,1.548,0.812,2.212
		C245.419,59.223,243.499,60.919,241.582,60.919z"/>
	<g>
		<path fill="#F37820" d="M38.696,0.355c-1.39,0-2.779,0.731-3.364,2.487l-14.118,42.72L7.169,2.842
			C6.584,1.086,5.194,0.355,3.805,0.355C1.902,0.355,0,1.745,0,3.867c0,0.439,0.072,0.805,0.219,1.316l17.556,53.254
			c0.66,2.049,2.049,3.146,3.439,3.146s2.852-1.097,3.511-3.146L42.282,5.183c0.147-0.512,0.219-0.877,0.219-1.316
			C42.501,1.745,40.599,0.355,38.696,0.355z"/>
		<path fill="#F37820" d="M143.445,16.009c0-4.974,4.169-8.559,10.242-8.559c4.022,0,7.827,1.829,10.606,4.682
			c1.098,1.098,1.828,2.122,3.583,2.122c1.973,0,3.729-1.537,3.729-3.511c0-0.731-0.219-1.537-0.804-2.268
			c-3.801-5.048-10.97-8.339-17.114-8.339c-8.706,0-17.559,5.632-17.559,15.873c0,19.678,29.626,13.973,29.626,28.675
			c0,5.121-4.607,9.583-12.8,9.583c-3.658,0-7.463-1.17-10.023-3.876c-1.096-1.097-1.536-2.122-3.364-2.122
			c-1.902,0-3.803,1.682-3.803,3.73c0,0.659,0.219,1.391,0.73,2.122c3.366,4.974,10.9,7.462,16.46,7.462
			c10.459,0,20.115-6.146,20.115-16.899C173.07,23.836,143.445,28.738,143.445,16.009z"/>
		<g>
			<g>
				<path fill="#F37820" d="M280.068,61.64c-1.938,0-3.507-1.93-3.507-4.312V4.311c0-2.38,1.57-4.311,3.507-4.311
					c1.934,0,3.506,1.931,3.506,4.311v53.017C283.575,59.71,282.002,61.64,280.068,61.64z"/>
			</g>
		</g>
		<path fill="#F37820" d="M354.256,0.355h-35.112c-2.416,0-3.658,1.829-3.658,3.657c0,1.829,1.243,3.658,3.658,3.658h13.898h0.151
			v49.6c0,2.243,1.57,4.062,3.507,4.062c1.936,0,3.507-1.819,3.507-4.062v-49.6h0.149h13.9c2.414,0,3.656-1.829,3.656-3.658
			C357.912,2.185,356.669,0.355,354.256,0.355z"/>
		<path fill="#F37820" d="M108.239,56.738L90.369,3.127C89.623,1.043,88.209,0,86.794,0c-1.414,0-2.755,1.043-3.498,3.127
			L65.426,56.738c-0.149,0.447-0.226,0.895-0.226,1.341c0,2.16,1.937,3.574,3.874,3.574c1.404,0,2.807-0.737,3.411-2.496
			l5.518-16.524h17.712l5.583,16.799c0.651,1.554,1.968,2.221,3.295,2.221c1.937,0,3.871-1.415,3.871-3.574
			C108.462,57.632,108.389,57.185,108.239,56.738z M80.374,35.492l4.132-12.485l2.289-7.207l6.544,19.692H80.374z"/>
	</g>
</g>
</svg>
