<?xml version="1.0" encoding="utf-8"?>
<!-- Generator: Adobe Illustrator 16.0.0, SVG Export Plug-In . SVG Version: 6.00 Build 0)  -->
<!DOCTYPE svg PUBLIC "-//W3C//DTD SVG 1.1//EN" "http://www.w3.org/Graphics/SVG/1.1/DTD/svg11.dtd">
<svg version="1.1" id="Layer_1" xmlns="http://www.w3.org/2000/svg" xmlns:xlink="http://www.w3.org/1999/xlink" x="0px" y="0px"
	 width="77.145px" height="66.88px" viewBox="0 0 77.145 66.88" enable-background="new 0 0 77.145 66.88" xml:space="preserve">
<g>
	<g>
		<g>
			<path fill="#F37220" d="M38.571,66.88c-1.278,0-2.45-0.682-3.089-1.781L0.479,15.772c-0.984-1.705-0.402-3.884,1.302-4.867
				c1.706-0.984,3.882-0.403,4.869,1.304l31.922,43.972l31.92-43.972c0.986-1.707,3.163-2.288,4.868-1.304
				c1.709,0.983,2.291,3.162,1.307,4.867L41.66,65.099C41.023,66.198,39.841,66.88,38.571,66.88z"/>
		</g>
		<g>
			<path fill="#F37220" d="M38.571,28.893c-7.969,0-14.447-6.48-14.447-14.447S30.603,0,38.571,0
				c7.968,0,14.447,6.478,14.447,14.445S46.539,28.893,38.571,28.893z M38.571,7.491c-3.835,0-6.956,3.12-6.956,6.955
				s3.121,6.956,6.956,6.956c3.837,0,6.953-3.121,6.953-6.956S42.408,7.491,38.571,7.491z"/>
		</g>
	</g>
</g>
</svg>
